<!DOCTYPE svg PUBLIC "-//W3C//DTD SVG 1.1//EN" "http://www.w3.org/Graphics/SVG/1.1/DTD/svg11.dtd">
<!-- Uploaded to: SVG Repo, www.svgrepo.com, Transformed by: SVG Repo Mixer Tools -->
<svg fill="#0c4648" version="1.1" id="Layer_1" xmlns="http://www.w3.org/2000/svg" xmlns:xlink="http://www.w3.org/1999/xlink" viewBox="-102.4 -102.4 716.80 716.80" xml:space="preserve" width="256px" height="256px" stroke="#0c4648">
<g id="SVGRepo_bgCarrier" stroke-width="0" transform="translate(0,0), scale(1)">
<rect x="-102.4" y="-102.4" width="716.80" height="716.80" rx="0" fill=" &#9;#dfceb9" strokewidth="0"/>
</g>
<g id="SVGRepo_tracerCarrier" stroke-linecap="round" stroke-linejoin="round" stroke="#CCCCCC" stroke-width="1.024"/>
<g id="SVGRepo_iconCarrier"> <g> <g> <path d="M396.995,180.944c12.339-15.317,19.749-34.766,19.749-55.921c0-49.241-40.061-89.302-89.302-89.302 c-29.182,0-55.136,14.072-71.442,35.783c-16.305-21.711-42.26-35.783-71.442-35.783c-49.241,0-89.302,40.061-89.302,89.302 c0,21.155,7.41,40.604,19.749,55.921C43.315,210.225,0,260.069,0,315.535c0,44.687,27.85,86.006,78.421,116.349 c47.715,28.629,110.779,44.395,177.579,44.395s129.865-15.766,177.579-44.395C484.15,401.541,512,360.222,512,315.535 C512,260.069,468.685,210.225,396.995,180.944z M327.442,71.442c29.546,0,53.581,24.037,53.581,53.581 s-24.035,53.581-53.581,53.581c-29.546,0-53.581-24.037-53.581-53.581S297.896,71.442,327.442,71.442z M184.558,71.442 c29.546,0,53.581,24.037,53.581,53.581s-24.035,53.581-53.581,53.581c-29.546,0-53.581-24.037-53.581-53.581 S155.012,71.442,184.558,71.442z M415.201,401.253C372.959,426.6,316.418,440.558,256,440.558S139.041,426.6,96.799,401.253 c-16.165-9.699-29.344-20.547-39.27-32.152c50.077-0.307,76.138-6.433,101.353-12.367c24.986-5.879,48.586-11.432,97.118-11.432 s72.133,5.553,97.119,11.432c25.215,5.933,51.276,12.059,101.353,12.367C444.545,380.707,431.366,391.555,415.201,401.253z M458.419,333.395c-48.532,0-72.132-5.553-97.119-11.432c-25.87-6.088-52.622-12.382-105.299-12.382s-79.429,6.294-105.301,12.382 c-24.986,5.878-48.586,11.432-97.118,11.432c-9.848,0-17.86-8.012-17.86-17.86c0-44.288,44.045-86.542,112.817-108.824 c11.027,4.882,23.207,7.615,36.02,7.615c29.182,0,55.136-14.072,71.442-35.783c16.305,21.711,42.26,35.783,71.442,35.783 c12.813,0,24.993-2.733,36.019-7.615c68.773,22.282,112.819,64.535,112.819,108.824 C476.279,325.383,468.268,333.395,458.419,333.395z"/> </g> </g> <g> <g> <rect x="202.419" y="232.186" width="35.721" height="47.628"/> </g> </g> <g> <g> <rect x="273.86" y="232.186" width="35.721" height="47.628"/> </g> </g> <g> <g> <rect x="309.581" y="101.209" width="35.721" height="47.628"/> </g> </g> <g> <g> <rect x="166.698" y="101.209" width="35.721" height="47.628"/> </g> </g> </g>
</svg>