<!DOCTYPE svg PUBLIC "-//W3C//DTD SVG 1.1//EN" "http://www.w3.org/Graphics/SVG/1.1/DTD/svg11.dtd">
<!-- Uploaded to: SVG Repo, www.svgrepo.com, Transformed by: SVG Repo Mixer Tools -->
<svg width="256px" height="256px" viewBox="0 0 400.00 400.00" fill="none" xmlns="http://www.w3.org/2000/svg" stroke="#2B303A">
<g id="SVGRepo_bgCarrier" stroke-width="0">
<rect x="0" y="0" width="400.00" height="400.00" rx="200" fill="#339989" strokewidth="0"/>
</g>
<g id="SVGRepo_tracerCarrier" stroke-linecap="round" stroke-linejoin="round"/>
<g id="SVGRepo_iconCarrier"> <path d="M140.126 298C126.478 278.853 54.833 167.153 70.1301 153.966C112.157 117.747 160.987 233.547 169 254.261" stroke="#2B303A" stroke-opacity="0.9" stroke-width="10" stroke-linecap="round" stroke-linejoin="round"/> <path d="M231 268.972C243.441 246.461 259.817 226.683 274.612 205.819C278.22 200.734 320.083 138.326 322.768 139.006C343.317 144.18 326.022 199.098 305.37 238.087C284.718 277.076 251.134 295.672 251.805 297.023C255.377 304.223 287.8 289.396 292.786 290.026" stroke="#2B303A" stroke-opacity="0.9" stroke-width="10" stroke-linecap="round" stroke-linejoin="round"/> <path d="M259 298C266.518 299.647 276.168 308.608 279 310" stroke="#2B303A" stroke-opacity="0.9" stroke-width="10" stroke-linecap="round" stroke-linejoin="round"/> <path d="M254 299C255.514 302.597 255.482 306.329 256 310" stroke="#2B303A" stroke-opacity="0.9" stroke-width="10" stroke-linecap="round" stroke-linejoin="round"/> <path d="M151 309C145.734 312.243 119.294 310.792 114 314" stroke="#2B303A" stroke-opacity="0.9" stroke-width="10" stroke-linecap="round" stroke-linejoin="round"/> <path d="M142 314C140.604 316.008 141.333 318.665 141 321" stroke="#2B303A" stroke-opacity="0.9" stroke-width="10" stroke-linecap="round" stroke-linejoin="round"/> <path d="M142 300C144.572 305.007 147.155 307.391 151 310" stroke="#2B303A" stroke-opacity="0.9" stroke-width="10" stroke-linecap="round" stroke-linejoin="round"/> <path d="M118 161.604C168.8 81.3012 290 44.8316 290 181" stroke="#2B303A" stroke-opacity="0.9" stroke-width="10" stroke-linecap="round" stroke-linejoin="round"/> <path d="M186 87.9739C175.016 73.6925 165.556 87.8316 164 101" stroke="#2B303A" stroke-opacity="0.9" stroke-width="10" stroke-linecap="round" stroke-linejoin="round"/> <path d="M256 80.8324C269.395 72.3387 274.059 84.7859 272.804 94" stroke="#2B303A" stroke-opacity="0.9" stroke-width="10" stroke-linecap="round" stroke-linejoin="round"/> <path d="M259 141C238.262 134.454 210.707 135.187 188 138.362" stroke="#2B303A" stroke-opacity="0.9" stroke-width="10" stroke-linecap="round" stroke-linejoin="round"/> </g>
</svg>